<?xml version="1.0" encoding="UTF-8"?>
<svg version="1.1" xmlns="http://www.w3.org/2000/svg" width="500" height="500">
<path d="M0 0 C6.9282579 0.63841539 11.147119 1.74271225 16 7 C24.65950779 21.39006442 23.23727739 45.71987055 23.25 61.875 C23.25067474 62.64801453 23.25134949 63.42102905 23.25204468 64.21746826 C23.21036903 94.364931 17.75274552 122.32308634 -2 146 C-2.78246094 146.94617188 -3.56492187 147.89234375 -4.37109375 148.8671875 C-16.63664122 163.03634793 -33.27778461 174.22165119 -52.27734375 176.2421875 C-60.39684648 176.52270775 -66.69815403 173.85960012 -72.671875 168.5 C-76.42508665 164.63955373 -77.88002671 161.46300828 -78.08984375 156.0625 C-77.91414327 152.02902811 -77.04843356 150.03291763 -74.15234375 147.1796875 C-68.97102233 142.53436485 -66.19260247 140.67656588 -59.1953125 140.7890625 C-57 141 -57 141 -54.5 142.125 C-52.33836617 144.82704229 -51.93081886 146.54094288 -52 150 C-54.30986287 153.12510859 -55.75482 154.76282286 -59.625 155.5 C-62.42011729 154.91155425 -63.03230202 153.96769798 -65 152 C-67.62570704 151.74930087 -67.62570704 151.74930087 -70 152 C-70.31961509 155.60848742 -70.31961509 155.60848742 -68.75 158.75 C-64.26221042 161.95556399 -58.25691485 161.48581144 -53 161 C-38.69474598 158.28727107 -28.14795981 148.56961061 -20 137 C-20.57105469 137.28875 -21.14210938 137.5775 -21.73046875 137.875 C-28.93384818 141.17320871 -35.15386261 141.44272876 -43 141 C-43 140.34 -43 139.68 -43 139 C-43.66 139 -44.32 139 -45 139 C-42.45199157 130.80997291 -42.45199157 130.80997291 -38.90625 128.83203125 C-38.1121875 128.49558594 -37.318125 128.15914062 -36.5 127.8125 C-35.30890625 127.29623047 -35.30890625 127.29623047 -34.09375 126.76953125 C-32 126 -32 126 -30 126 C-30.0825 125.13375 -30.165 124.2675 -30.25 123.375 C-29.94697521 119.28416528 -28.7921238 116.90782698 -26 114 C-22.74909817 111.77566057 -19.31399669 109.98383433 -15.8125 108.1875 C-13.98514585 107.22366275 -12.15829469 106.25887107 -10.33203125 105.29296875 C-9.52483643 104.8755542 -8.7176416 104.45813965 -7.88598633 104.02807617 C-6.04619205 103.14033161 -6.04619205 103.14033161 -5 102 C-6.093125 102.020625 -7.18625 102.04125 -8.3125 102.0625 C-12 102 -12 102 -15 101 C-20.60868994 102.0905786 -23.59701679 106.78304674 -27 111 C-28.5 109.875 -28.5 109.875 -30 108 C-30.51920464 103.48354514 -29.59326703 100.25637952 -27.8125 96.125 C-27.40644531 95.15820312 -27.00039063 94.19140625 -26.58203125 93.1953125 C-22.72689222 85.40888354 -18.85937696 80.55960164 -11.75 75.5 C-10.2262783 74.37062662 -8.70412786 73.2391301 -7.18359375 72.10546875 C-6.45897949 71.56970215 -5.73436523 71.03393555 -4.98779297 70.48193359 C4.07103966 63.72841921 12.21959329 55.67155512 14 44 C14.36166544 27.83807574 7.36563564 13.90880576 0 0 Z " fill="#fff" transform="translate(344,79)"/>
<path d="M0 0 C5.67549553 2.04317839 9.29873721 5.59747441 12 11 C12.375 14.3125 12.375 14.3125 12 18 C9.5 20.9375 9.5 20.9375 7 23 C1.25 21.25 1.25 21.25 -1 19 C-1.25 16 -1.25 16 -1 13 C-0.34 12.34 0.32 11.68 1 11 C1 9.68 1 8.36 1 7 C-1.97065509 7.34227572 -1.97065509 7.34227572 -5 8 C-7.41142364 12.82284727 -6.53429825 19.53789589 -5.421875 24.6640625 C-1.79255511 35.05711492 6.96702163 43.06870698 16 49 C16.99 49.33 17.98 49.66 19 50 C18.65066406 49.38253906 18.30132812 48.76507813 17.94140625 48.12890625 C14.98745414 42.63104071 12.49078171 37.384814 13 31 C13.66 30.01 14.32 29.02 15 28 C19.44209835 28.50766838 21.80450885 29.88644452 25 33 C25.62843935 34.21693551 26.23177284 35.44708716 26.8125 36.6875 C27.534375 37.780625 28.25625 38.87375 29 40 C32.59740299 40.70542073 32.59740299 40.70542073 34.90234375 40.5390625 C40.53844788 41.77753603 44.17502267 48.79918076 47.3125 53.3125 C47.9940918 54.28026367 47.9940918 54.28026367 48.68945312 55.26757812 C49.79735952 56.84197142 50.89930525 58.42055646 52 60 C52.67384507 53.47505168 52.67384507 53.47505168 50.3125 47.6875 C49.549375 47.130625 48.78625 46.57375 48 46 C46.33333333 44.33333333 44.66666667 42.66666667 43 41 C47.58194232 37.94537179 51.73668223 39.02061423 57 40 C65.23511126 42.702346 71.84997176 47.5017376 77.875 53.625 C78.37257813 54.11484375 78.87015625 54.6046875 79.3828125 55.109375 C83 58.74643716 83 58.74643716 83 61 C83.58136719 61.26941406 84.16273438 61.53882813 84.76171875 61.81640625 C87.01156235 63.00611412 88.8286554 64.34961624 90.8125 65.9375 C98.59293084 71.76569819 105.37687226 73.13085343 115 72 C124.79062662 69.4490044 133.40988172 64.18444007 142 59 C142.9590625 58.42507813 143.918125 57.85015625 144.90625 57.2578125 C145.5971875 56.84273438 146.288125 56.42765625 147 56 C146.73414316 61.98177883 146.24011195 66.44187965 142 71 C134.7730065 75.163078 126.56365198 77.19893192 118.5 79.0625 C117.76652344 79.23587891 117.03304687 79.40925781 116.27734375 79.58789062 C112.19947523 80.53987961 108.1407349 81.36096563 104 82 C103.26894043 82.12286377 102.53788086 82.24572754 101.78466797 82.37231445 C70.0735164 87.61045416 37.46404652 85.82345579 10.546875 66.8359375 C9.70640625 66.23007812 8.8659375 65.62421875 8 65 C6.98679688 64.33871094 6.98679688 64.33871094 5.953125 63.6640625 C-0.62079563 59.32992899 -5.1307649 53.08654387 -10 47 C-10.48984375 46.53078125 -10.9796875 46.0615625 -11.484375 45.578125 C-17.62369637 39.18563574 -19.51075265 28.81093231 -20.375 20.3125 C-19.45114373 12.15176963 -17.30834361 7.51620939 -10.83984375 2.3125 C-7.14448513 -0.3236794 -4.53196986 -0.30213132 0 0 Z " fill="#fff" transform="translate(192,204)"/>
<path d="M0 0 C25.80293943 9.04714539 46.00957431 24.47653846 58.19311523 49.38696289 C63.33819951 60.36165781 66.03045786 72.70505218 62.70703125 84.66015625 C60.06936012 90.56818313 56.29019361 94.62335331 50.55078125 97.625 C46.21237636 99.01948729 43.47565708 98.87332983 39.36328125 97.125 C35.25305588 94.7865611 32.96577133 92.15296827 31.55078125 87.625 C30.83395465 83.20456929 30.74158381 79.90104211 33.17578125 76.0625 C36.25789737 74.19700866 38.00901077 74.02214545 41.55078125 74.625 C43.48828125 76.25 43.48828125 76.25 44.55078125 78.625 C44.48828125 81.6875 44.48828125 81.6875 43.55078125 84.625 C41.48828125 86.5 41.48828125 86.5 39.55078125 87.625 C39.88078125 88.615 40.21078125 89.605 40.55078125 90.625 C43.46116667 90.59974816 43.46116667 90.59974816 46.55078125 89.625 C51.00058106 82.60720825 50.62587049 74.54609302 48.89453125 66.62109375 C46.0655491 58.04879006 41.02256719 50.85551322 34.55078125 44.625 C34.88078125 45.45 35.21078125 46.275 35.55078125 47.125 C37.5938174 54.27562651 36.94923555 58.79445752 33.42578125 65.15625 C33.13703125 65.6409375 32.84828125 66.125625 32.55078125 66.625 C28.48785277 64.53863132 26.52170274 62.75454979 24.55078125 58.625 C24.32390625 57.449375 24.09703125 56.27375 23.86328125 55.0625 C22.96616009 51.60991238 22.96616009 51.60991238 20.7890625 50.640625 C20.09167969 50.36734375 19.39429688 50.0940625 18.67578125 49.8125 C15.98731174 48.670022 14.79668922 48.02212302 13.2421875 45.51171875 C12.20158433 42.90818631 11.34168657 40.31484225 10.55078125 37.625 C10.10412109 36.201875 10.10412109 36.201875 9.6484375 34.75 C8.91865802 32.38242047 8.2206392 30.01010027 7.55078125 27.625 C5.36411439 30.90500029 4.78501253 32.72114534 4.55078125 36.625 C5.74290819 39.25097583 5.74290819 39.25097583 7.55078125 41.625 C8.55078125 43.29166667 9.55078125 44.95833333 10.55078125 46.625 C9.56078125 47.615 9.56078125 47.615 8.55078125 48.625 C0.93274402 48.00205999 -6.21068351 42.24933634 -11.44921875 37 C-16.14190066 31.46109676 -19.16903816 24.7842283 -22.2421875 18.25146484 C-25.01345476 12.57265554 -27.86486964 8.853475 -32.89257812 4.98681641 C-33.40626953 4.53741699 -33.91996094 4.08801758 -34.44921875 3.625 C-34.44921875 2.965 -34.44921875 2.305 -34.44921875 1.625 C-44.76095257 -1.4145919 -52.96323996 -1.42656553 -63.42480469 0.31445312 C-65.57723852 0.64463834 -67.72811911 0.86023041 -69.89453125 1.078125 C-71.06757813 1.25859375 -72.240625 1.4390625 -73.44921875 1.625 C-73.77921875 2.285 -74.10921875 2.945 -74.44921875 3.625 C-76.77078472 4.03229228 -79.10609745 4.36938677 -81.44921875 4.625 C-80.24177523 -1.53296193 -78.56937792 -3.74822059 -73.44921875 -7.375 C-55.36464851 -16.41728512 -17.67956325 -5.89076581 0 0 Z " fill="#fff" transform="translate(267.44921875,39.375)"/>
<path d="M0 0 C3.99650135 3.31260807 7.08700591 6.17908852 8 11.46484375 C8.12112551 15.52611092 8.02995691 18.44811005 5.50390625 21.75390625 C1.33921241 25.46591598 -1.44209712 26.38292338 -6.99609375 26.19140625 C-10.73416582 25.22227645 -12.17879676 24.47331391 -14.37109375 21.31640625 C-14.87109375 18.75390625 -14.87109375 18.75390625 -14.37109375 16.31640625 C-12.68359375 14.44140625 -12.68359375 14.44140625 -10.37109375 13.31640625 C-7.62109375 13.62890625 -7.62109375 13.62890625 -5.37109375 14.31640625 C-4.38109375 17.28640625 -4.38109375 17.28640625 -3.37109375 20.31640625 C-2.05109375 20.31640625 -0.73109375 20.31640625 0.62890625 20.31640625 C0.62890625 18.00640625 0.62890625 15.69640625 0.62890625 13.31640625 C-0.03109375 13.31640625 -0.69109375 13.31640625 -1.37109375 13.31640625 C-2.37526906 12.32059907 -3.37476344 11.32006252 -4.37109375 10.31640625 C-13.84293195 5.74962712 -23.40686331 6.5227152 -33.18359375 9.87890625 C-34.36888672 10.28302734 -34.36888672 10.28302734 -35.578125 10.6953125 C-36.16980469 10.90027344 -36.76148438 11.10523437 -37.37109375 11.31640625 C-36.80261719 11.39117187 -36.23414063 11.4659375 -35.6484375 11.54296875 C-29.38100541 12.61021094 -25.79372434 14.79423092 -21.37109375 19.31640625 C-23.50016559 21.65838527 -25.39060796 23.20148379 -28.37109375 24.31640625 C-30.73046875 24.29296875 -30.73046875 24.29296875 -33.12109375 23.94140625 C-33.9203125 23.83054687 -34.71953125 23.7196875 -35.54296875 23.60546875 C-36.14625 23.51007813 -36.74953125 23.4146875 -37.37109375 23.31640625 C-37.77328125 24.24453125 -37.77328125 24.24453125 -38.18359375 25.19140625 C-39.37109375 27.31640625 -39.37109375 27.31640625 -42.37109375 29.31640625 C-44.92951089 29.43334616 -47.3821508 29.45856341 -49.93359375 29.37890625 C-54.79444087 29.05070102 -54.79444087 29.05070102 -59.37109375 30.31640625 C-56.92530198 32.6256611 -55.77667241 33.30642439 -52.35546875 33.390625 C-51.288125 33.26300781 -50.22078125 33.13539062 -49.12109375 33.00390625 C-48.0434375 32.88402344 -46.96578125 32.76414063 -45.85546875 32.640625 C-45.035625 32.53363281 -44.21578125 32.42664063 -43.37109375 32.31640625 C-43.87070118 36.41881653 -44.78136868 38.22018022 -47.93359375 40.87890625 C-48.57425781 41.43707031 -49.21492188 41.99523437 -49.875 42.5703125 C-57.54373623 47.93482752 -64.90880673 49.3617639 -74.0625 50.65039062 C-81.90152378 51.89129606 -90.04829054 54.09737843 -95.30859375 60.44140625 C-101.35059018 70.43311766 -101.37109375 82.96045289 -101.37109375 94.31640625 C-105.22146226 92.80376148 -107.25457797 90.86912916 -109.37109375 87.31640625 C-110.13568769 81.2982157 -109.07265467 75.80022086 -107.12109375 70.12890625 C-106.86295898 69.37061523 -106.60482422 68.61232422 -106.33886719 67.83105469 C-96.50745099 40.64361883 -78.24257104 13.71321758 -51.88647461 0.74462891 C-36.35441855 -6.49437781 -14.98606232 -10.64084491 0 0 Z " fill="#fff" transform="translate(226.37109375,66.68359375)"/>
<path d="M0 0 C2.65546267 2.65546267 2.96306917 3.51066654 3.25 7.3125 C2.8986521 12.49488146 1.2458647 14.72046328 -2.3125 18.375 C-5 20 -5 20 -8.1875 19.875 C-11 19 -11 19 -13 17 C-12.67028521 13.70285207 -12.3773161 12.3773161 -10 10 C-7.27130593 10.03287583 -4.7033382 10.56397771 -2 11 C-2.49756092 8.24358584 -2.49756092 8.24358584 -4 6 C-10.04775469 5.69562723 -14.51438682 7.21790901 -19.14453125 11.0625 C-24.26617454 16.41057384 -27.43731016 22.81162675 -29 30 C-28.195625 29.195625 -27.39125 28.39125 -26.5625 27.5625 C-22.73336737 24.31186942 -18.8788744 24.11926137 -14 24 C-14.37784522 30.42336874 -14.37784522 30.42336874 -17.5625 33.375 C-20.21837302 35.6420012 -20.21837302 35.6420012 -20.01171875 37.95703125 C-19.92535156 38.69308594 -19.83898437 39.42914063 -19.75 40.1875 C-19.48969322 43.71347365 -19.85811423 44.80448811 -21.984375 47.734375 C-23.62982375 49.50246589 -25.31147785 51.23770733 -27.03125 52.93359375 C-29.22993062 54.76564894 -29.22993062 54.76564894 -29 57 C-26.05181069 56.51973152 -26.05181069 56.51973152 -23 55 C-21.28432339 51.49705129 -21.28432339 51.49705129 -20 48 C-18.515 47.505 -18.515 47.505 -17 47 C-14.19447359 54.01381602 -14.22754438 60.23536638 -16.7421875 67.2421875 C-18.78043865 71.7111481 -21.2549707 75.93902793 -23.77514648 80.15234375 C-28.18337886 87.63812584 -30.15534602 94.42993368 -28 103 C-24.32123647 111.56626364 -17.72308889 118.85127407 -10 124 C-10.33 124.99 -10.66 125.98 -11 127 C-12.39303605 127.13657216 -13.79006121 127.23271149 -15.1875 127.3125 C-16.35345703 127.39951172 -16.35345703 127.39951172 -17.54296875 127.48828125 C-21.17983597 126.76553339 -22.88201664 124.88096448 -25 122 C-27.33526644 118.17759496 -29.39866109 114.23697053 -31.4375 110.25 C-32.01226074 109.13415527 -32.58702148 108.01831055 -33.17919922 106.86865234 C-37.60627737 98.11405174 -41.20444853 89.39305295 -44 80 C-44.32355469 78.93265625 -44.64710938 77.8653125 -44.98046875 76.765625 C-50.85849285 56.3443206 -48.94210169 35.94012061 -38.99609375 17.203125 C-33.15359201 7.82768189 -25.24262846 -0.10394135 -14.6875 -3.8125 C-9.26203114 -4.19102108 -4.51479916 -3.00986611 0 0 Z " fill="#fff" transform="translate(180,146)"/>
<path d="M0 0 C11.04378678 5.29091786 17.1322873 16.72544646 21.25390625 27.7734375 C23.44862345 34.32311709 23.34871268 41.1488214 23 48 C22.505 48.99 22.505 48.99 22 50 C20.02 49.34 18.04 48.68 16 48 C15.7101406 53.14232047 15.6479807 57.63953621 17.5 62.5 C20.54397528 70.80175076 19.14658657 77.71066581 16.16796875 85.84765625 C15 88 15 88 12 89 C9.63477442 88.07796291 7.29598193 87.08301035 5 86 C5 85.34 5 84.68 5 84 C4.34 84 3.68 84 3 84 C2.01 82.02 1.02 80.04 0 78 C-0.4846875 79.02738281 -0.969375 80.05476563 -1.46875 81.11328125 C-7.89471016 94.49476029 -15.74293656 106.14572015 -26.5625 116.4375 C-30.20551039 120.26733144 -33.05173051 124.62432626 -36 129 C-38.88906893 128.66440108 -40.5368984 128.46869462 -42.6171875 126.36328125 C-44.58755426 123.15072675 -45.91253001 120.71433826 -46.375 116.9375 C-44.55117989 113.04115705 -41.98462189 111.27016581 -38.51953125 108.80859375 C-32.78788885 104.694252 -28.46425621 100.44827627 -24.1875 94.875 C-23.45370117 93.94494141 -23.45370117 93.94494141 -22.70507812 92.99609375 C-20.65297742 90.35646214 -19.06492655 88.19477966 -18 85 C-17.34 85 -16.68 85 -16 85 C-15.72800781 84.30132812 -15.45601563 83.60265625 -15.17578125 82.8828125 C-14.38428919 80.9422107 -13.54704993 79.01971511 -12.66796875 77.1171875 C-1.38157847 52.40029058 -0.61862015 26.6962256 0 0 Z " fill="#fff" transform="translate(369,130)"/>
<path d="M0 0 C1.99283691 1.47855642 3.69302634 3.11881621 5.421875 4.89453125 C20.8150233 20.56539099 42.41782734 30.68394702 64.50756836 31.58276367 C67.90035851 31.6031982 71.29293942 31.62318204 74.68579102 31.62280273 C76.83826275 31.62496313 78.99019853 31.64308363 81.14257812 31.66210938 C90.8828425 31.70017199 100.30599122 30.86856432 109.9375 29.4375 C106.70288083 38.05118765 99.70630208 44.68109057 91.9375 49.4375 C91.2775 49.4375 90.6175 49.4375 89.9375 49.4375 C89.4425 50.4275 89.4425 50.4275 88.9375 51.4375 C81.34234252 54.91755543 74.21750675 56.02427213 65.9375 55.4375 C66.2675 53.4575 66.5975 51.4775 66.9375 49.4375 C64.62363705 49.71814918 62.31140992 50.01231689 60 50.3125 C58.71222656 50.47492188 57.42445313 50.63734375 56.09765625 50.8046875 C55.05480469 51.01351562 54.01195312 51.22234375 52.9375 51.4375 C52.4425 52.4275 52.4425 52.4275 51.9375 53.4375 C45.50386529 56.07543678 39.4450448 55.46057092 32.9375 53.4375 C31.58846766 52.803202 30.24916042 52.14585666 28.9375 51.4375 C29.34170931 45.77856967 31.14086985 43.41492206 34.9375 39.4375 C35.9275 38.7775 36.9175 38.1175 37.9375 37.4375 C36.72126953 37.10878906 36.72126953 37.10878906 35.48046875 36.7734375 C27.6383988 34.52762934 20.94280906 31.58006257 13.9375 27.4375 C13.256875 27.07527344 12.57625 26.71304687 11.875 26.33984375 C7.87689998 24.21154481 5.04354549 21.70702157 1.9375 18.4375 C-2.31150636 14.66060545 -7.07025768 12.09132816 -12.0625 9.4375 C-11.02091942 3.57980372 -11.02091942 3.57980372 -8.0625 1.4375 C-3.00873656 -0.82056452 -3.00873656 -0.82056452 0 0 Z " fill="#fff" transform="translate(185.0625,257.5625)"/>
<path d="M0 0 C0.72058594 -0.00773437 1.44117188 -0.01546875 2.18359375 -0.0234375 C6.97885624 -0.00609478 10.94782059 0.74059314 15.5 2.25 C14.84 3.9 14.18 5.55 13.5 7.25 C16.28668383 8.64334191 18.78148767 8.16499903 21.82470703 8.03222656 C31.12584853 7.6867505 38.98781815 8.02317246 46.5 14.25 C47.44921875 16.25 47.44921875 16.25 47.5 18.25 C45.1875 21.5 45.1875 21.5 42.5 24.25 C41.84 24.25 41.18 24.25 40.5 24.25 C40.17 24.91 39.84 25.57 39.5 26.25 C38.015 26.745 38.015 26.745 36.5 27.25 C37.04527344 27.5903125 37.59054687 27.930625 38.15234375 28.28125 C49.19714807 35.38013278 56.82530581 43.77737641 64.5 54.25 C65.6230615 55.77226538 66.74771348 57.29336073 67.875 58.8125 C68.32746094 59.42738281 68.77992188 60.04226562 69.24609375 60.67578125 C70.59798354 62.45493539 70.59798354 62.45493539 72.9375 64.5 C74.5 66.25 74.5 66.25 74.5 68.375 C73.19024908 70.83078297 72.06460725 71.22774396 69.5 72.25 C67.140625 72.4453125 67.140625 72.4453125 64.75 72.375 C63.95078125 72.35695313 63.1515625 72.33890625 62.328125 72.3203125 C61.72484375 72.29710938 61.1215625 72.27390625 60.5 72.25 C60.06171875 71.32960938 59.6234375 70.40921875 59.171875 69.4609375 C51.86793846 54.66790529 42.30918016 43.37425994 28.5 34.25 C27.69175781 33.69957031 26.88351562 33.14914063 26.05078125 32.58203125 C8.99657172 21.61659736 -11.80123043 17.59199815 -31.5 14.25 C-30.02189176 9.82559546 -26.68369599 8.24388563 -22.8125 6.125 C-22.21244141 5.77824219 -21.61238281 5.43148438 -20.99414062 5.07421875 C-14.15436218 1.23924093 -7.77156478 -0.08341572 0 0 Z " fill="#fff" transform="translate(266.5,16.75)"/>
<path d="M0 0 C3.2657164 -0.47296269 6.52276449 -0.75054138 9.8125 -1 C10.72193359 -1.1340625 11.63136719 -1.268125 12.56835938 -1.40625 C15.92315828 -1.59592061 17.90562051 -1.36002862 21 0 C24.81021171 4.15422535 27.62106248 8.74425132 30.51296997 13.56585693 C33.09916494 17.79924055 35.9137179 21.87918561 38.69140625 25.98828125 C39.83295738 27.69881829 40.97292461 29.4104134 42.11132812 31.12304688 C42.67795166 31.97503662 43.2445752 32.82702637 43.82836914 33.70483398 C44.40063232 34.56536377 44.97289551 35.42589355 45.5625 36.3125 C46.74793697 38.09317213 47.93348331 39.87377145 49.11914062 41.65429688 C51.69591271 45.52430247 54.2716667 49.39498316 56.84645081 53.26631165 C57.89673726 54.84480471 58.94829925 56.42244888 60 58 C60.02529271 50.91586059 60.04284261 43.83173277 60.05493164 36.74755859 C60.05996974 34.33609583 60.06680034 31.92463614 60.07543945 29.51318359 C60.08752787 26.05305221 60.09323344 22.5929611 60.09765625 19.1328125 C60.10281754 18.04944611 60.10797882 16.96607971 60.11329651 15.84988403 C60.11337204 14.8489975 60.11344757 13.84811096 60.11352539 12.81689453 C60.115746 11.93309113 60.11796661 11.04928772 60.12025452 10.13870239 C60.13873944 7.94723225 60.13873944 7.94723225 59 6 C56.88153715 5.31270746 56.88153715 5.31270746 54.4375 4.875 C53.61121094 4.70742188 52.78492188 4.53984375 51.93359375 4.3671875 C51.29550781 4.24601562 50.65742188 4.12484375 50 4 C50 2.68 50 1.36 50 0 C58.25 0 66.5 0 75 0 C75 1.32 75 2.64 75 4 C73.88625 4.2475 72.7725 4.495 71.625 4.75 C68.05885491 5.59608529 68.05885491 5.59608529 66.79336548 7.63665771 C65.71785866 10.84046581 65.71660881 13.68329366 65.68115234 17.06347656 C65.67110672 17.76631775 65.6610611 18.46915894 65.65071106 19.19329834 C65.61989881 21.50906582 65.60284964 23.82471779 65.5859375 26.140625 C65.56722425 27.74917595 65.54765071 29.3577171 65.5272522 30.96624756 C65.47594149 35.1944806 65.43631015 39.42274546 65.39910889 43.65112305 C65.35906256 47.96801621 65.30797309 52.28477711 65.2578125 56.6015625 C65.16106578 65.06761796 65.07665706 73.53373892 65 82 C60.24887085 81.28106689 60.24887085 81.28106689 58.0090332 78.75146484 C57.03969849 77.24640381 57.03969849 77.24640381 56.05078125 75.7109375 C55.6841185 75.15174622 55.31745575 74.59255493 54.93968201 74.01641846 C53.71659783 72.14466805 52.51502625 70.26001089 51.3125 68.375 C50.45575698 67.05670263 49.5973191 65.73950539 48.73730469 64.42333984 C47.34941973 62.29797887 45.96323303 60.17162245 44.58261108 58.04153442 C38.97996386 49.39771287 33.247977 40.84057341 27.52279663 32.27764893 C24.67280599 28.01318651 21.82877108 23.74475757 18.984375 19.4765625 C18.01272436 18.0190236 17.04104777 16.56150201 16.06933594 15.10400391 C15.38645508 14.07968262 14.70357422 13.05536133 14 12 C13.95351901 19.3109534 13.91805108 26.62187458 13.89637566 33.93294621 C13.88596894 37.32831632 13.87186716 40.72358483 13.84912109 44.11889648 C13.8230958 48.02847041 13.81350146 51.93800417 13.8046875 55.84765625 C13.79436493 57.05833267 13.78404236 58.26900909 13.77340698 59.51637268 C13.77262737 65.40313318 13.95464833 70.45490301 16 76 C18.64 76.66 21.28 77.32 24 78 C24 79.32 24 80.64 24 82 C16.08 82 8.16 82 0 82 C0 80.68 0 79.36 0 78 C1.134375 77.71125 2.26875 77.4225 3.4375 77.125 C4.613125 76.75375 5.78875 76.3825 7 76 C8.43872134 73.12255732 8.11937153 70.65434078 8.11352539 67.43896484 C8.11367142 66.76567642 8.11381744 66.092388 8.1139679 65.3986969 C8.11327027 63.16941119 8.10548489 60.94020865 8.09765625 58.7109375 C8.09579154 57.16679937 8.09436789 55.62266066 8.09336853 54.07852173 C8.08954754 50.01129528 8.07972082 45.94410445 8.06866455 41.87689209 C8.05844144 37.7278288 8.05386898 33.57875975 8.04882812 29.4296875 C8.03809819 21.28644197 8.02102677 13.14322542 8 5 C5.36 4.67 2.72 4.34 0 4 C0 2.68 0 1.36 0 0 Z " fill="#fff" transform="translate(124,356)"/>
<path d="M0 0 C0.33 2.97 0.66 5.94 1 9 C1.70125 8.071875 2.4025 7.14375 3.125 6.1875 C5.56694781 2.95551025 8.25636847 1.51168019 12 0 C15.65625 -0.43359375 15.65625 -0.43359375 19.5 -0.4375 C20.7684375 -0.45683594 22.036875 -0.47617187 23.34375 -0.49609375 C27.57337671 0.07779791 29.69864353 1.34721135 33 4 C37.37922007 9.88929595 37.17768533 16.19001278 37.31640625 23.23828125 C37.33718735 24.11904831 37.35796844 24.99981537 37.37937927 25.90727234 C37.44453937 28.70893879 37.50360321 31.51069557 37.5625 34.3125 C37.60571715 36.21680606 37.64933244 38.12110312 37.69335938 40.02539062 C37.80018623 44.68350218 37.9015474 49.34170422 38 54 C40.31 54.99 42.62 55.98 45 57 C45 58.32 45 59.64 45 61 C35.76 61 26.52 61 17 61 C17 59.68 17 58.36 17 57 C17.969375 56.731875 18.93875 56.46375 19.9375 56.1875 C21.4534375 55.5996875 21.4534375 55.5996875 23 55 C24.28887994 51.13336018 24.18211941 47.45325556 24.203125 43.421875 C24.21167511 42.15467621 24.21167511 42.15467621 24.22039795 40.86187744 C24.229843 39.07313283 24.23637997 37.28437086 24.24023438 35.49560547 C24.24991428 32.77410016 24.28093122 30.05335853 24.3125 27.33203125 C24.31903306 25.5911503 24.32428234 23.85026397 24.328125 22.109375 C24.3404718 21.30183777 24.3528186 20.49430054 24.36553955 19.66229248 C24.34492325 14.3686079 23.3896924 10.73364152 21 6 C16.04815227 5.64769463 12.14494491 5.4795705 7.5625 7.5625 C2.53812966 12.34177911 1.13672497 18.54060027 0.87060547 25.27392578 C0.86947754 26.4854834 0.86834961 27.69704102 0.8671875 28.9453125 C0.86623077 29.59700409 0.86527405 30.24869568 0.86428833 30.9201355 C0.86361103 32.29001971 0.86543376 33.6599072 0.86962891 35.02978516 C0.87500102 37.12539854 0.86965982 39.22079931 0.86328125 41.31640625 C0.86394177 42.65104214 0.8652224 43.98567789 0.8671875 45.3203125 C0.86831543 46.52961426 0.86944336 47.73891602 0.87060547 48.98486328 C0.86353946 52.04938784 0.86353946 52.04938784 2 55 C5.00847418 56.22520264 5.00847418 56.22520264 8 57 C8 58.32 8 59.64 8 61 C-1.24 61 -10.48 61 -20 61 C-20.33 59.68 -20.66 58.36 -21 57 C-18.36 56.01 -15.72 55.02 -13 54 C-12.92599792 47.48553982 -12.87146814 40.97132276 -12.83520508 34.45654297 C-12.82009247 32.23905172 -12.79960174 30.02159047 -12.77368164 27.80419922 C-12.73740707 24.62199511 -12.72029861 21.44018518 -12.70703125 18.2578125 C-12.68380547 16.76400558 -12.68380547 16.76400558 -12.66011047 15.24002075 C-12.65988388 14.31921722 -12.65965729 13.3984137 -12.65942383 12.44970703 C-12.65276199 11.6369632 -12.64610016 10.82421936 -12.63923645 9.98684692 C-12.75828842 9.33118744 -12.87734039 8.67552795 -13 8 C-15.91765 6.0549 -17.62537285 5.54723683 -21 5 C-21 3.68 -21 2.36 -21 1 C-18.06255476 0.83231709 -15.12505096 0.66581142 -12.1875 0.5 C-11.35412109 0.45230469 -10.52074219 0.40460938 -9.66210938 0.35546875 C-8.85966797 0.31035156 -8.05722656 0.26523437 -7.23046875 0.21875 C-6.49207764 0.17685547 -5.75368652 0.13496094 -4.99291992 0.09179688 C-3.33009506 0.01520467 -1.6645879 0 0 0 Z " fill="#fff" transform="translate(410,377)"/>
<path d="M0 0 C0 2.97 0 5.94 0 9 C0.495 8.2575 0.99 7.515 1.5 6.75 C5.62314506 2.21454044 9.28585553 0.30673551 15.421875 -0.38671875 C25.792815 -0.70397324 25.792815 -0.70397324 29.6875 1.6875 C34.33980346 6.33980346 36.06536945 10.73995722 36.20532227 17.21777344 C36.2352401 18.4485965 36.2352401 18.4485965 36.26576233 19.70428467 C36.28247482 20.58046448 36.29918732 21.45664429 36.31640625 22.359375 C36.33718735 23.26375305 36.35796844 24.1681311 36.37937927 25.09991455 C36.4446594 27.98320055 36.50365952 30.8665761 36.5625 33.75 C36.60570571 35.70704044 36.64932065 37.66407188 36.69335938 39.62109375 C36.80031872 44.4139712 36.90164673 49.20693854 37 54 C39.64 54.99 42.28 55.98 45 57 C45 58.32 45 59.64 45 61 C35.43 61 25.86 61 16 61 C16 59.68 16 58.36 16 57 C16.969375 56.71125 17.93875 56.4225 18.9375 56.125 C22.10664203 55.35785318 22.10664203 55.35785318 23 53 C23.11155992 49.99613198 23.16412933 47.01617629 23.16796875 44.01171875 C23.17129715 43.11636917 23.17462555 42.22101959 23.17805481 41.29853821 C23.18312347 39.40126052 23.18546315 37.5039739 23.18530273 35.60668945 C23.18748333 32.70964749 23.20562333 29.81298988 23.22460938 26.91601562 C23.22754452 25.07291797 23.2295285 23.2298185 23.23046875 21.38671875 C23.23765427 20.52197433 23.24483978 19.65722992 23.25224304 18.76628113 C23.33486858 11.84396187 23.33486858 11.84396187 20 6 C15.54953769 5.57143696 11.36613817 5.52482151 7.125 7 C1.39498067 12.39295937 0.14670566 19.33663271 -0.09179688 26.91796875 C-0.13438506 30.32096764 -0.13635673 33.72176678 -0.125 37.125 C-0.12886719 38.29160156 -0.13273437 39.45820313 -0.13671875 40.66015625 C-0.13478516 42.34818359 -0.13478516 42.34818359 -0.1328125 44.0703125 C-0.13168457 45.08883301 -0.13055664 46.10735352 -0.12939453 47.15673828 C-0.00568132 49.87516095 0.38871358 52.35271093 1 55 C2.98 55.66 4.96 56.32 7 57 C7 58.32 7 59.64 7 61 C-2.24 61 -11.48 61 -21 61 C-21 59.68 -21 58.36 -21 57 C-18.69 56.01 -16.38 55.02 -14 54 C-14 38.82 -14 23.64 -14 8 C-16.31 7.01 -18.62 6.02 -21 5 C-21 3.68 -21 2.36 -21 1 C-18.25008168 0.83188272 -15.50007888 0.6654519 -12.75 0.5 C-11.97269531 0.45230469 -11.19539063 0.40460938 -10.39453125 0.35546875 C-9.26337891 0.28779297 -9.26337891 0.28779297 -8.109375 0.21875 C-7.41811523 0.17685547 -6.72685547 0.13496094 -6.01464844 0.09179688 C-4.01161035 0.00052902 -2.0051163 0 0 0 Z " fill="#fff" transform="translate(341,377)"/>
<path d="M0 0 C0.33 -1.65 0.66 -3.3 1 -5 C2.32 -5 3.64 -5 5 -5 C5 2.92 5 10.84 5 19 C3.35 19 1.7 19 0 19 C-0.15855469 18.20335937 -0.31710938 17.40671875 -0.48046875 16.5859375 C-1.91255335 10.08221626 -3.06381877 5.57499724 -8 1 C-12.67841073 -1.90141782 -17.66942598 -1.52198499 -23 -1 C-26.74030185 0.60298651 -27.73158465 1.59737698 -30 5 C-30.39213097 7.30650925 -30.39213097 7.30650925 -30.375 9.8125 C-30.40335938 10.64394531 -30.43171875 11.47539062 -30.4609375 12.33203125 C-29.72312545 16.60258744 -27.76794308 19.62214333 -24.33251953 22.29956055 C-22.38054051 23.58008527 -20.39546918 24.76818913 -18.375 25.9375 C-16.93517231 26.80689748 -15.49636807 27.67799218 -14.05859375 28.55078125 C-13.36233887 28.96924316 -12.66608398 29.38770508 -11.94873047 29.81884766 C-3.71702427 34.80819802 5.31535197 40.65063608 9 50 C9.78561615 56.39455002 9.71929305 62.59747992 6.3984375 68.25 C2.31001318 73.36624049 -2.73201632 76.30033817 -9 78 C-19.67220424 79.16135098 -27.37388559 77.54521422 -37 73 C-37.33 74.32 -37.66 75.64 -38 77 C-39.32 77 -40.64 77 -42 77 C-42 67.76 -42 58.52 -42 49 C-40.68 49 -39.36 49 -38 49 C-37.67128906 50.50240234 -37.67128906 50.50240234 -37.3359375 52.03515625 C-35.41523007 60.27784736 -33.76117455 67.32693675 -26.2109375 72.140625 C-21.39913765 74.0109359 -16.04916706 73.62644753 -11 73 C-8.13782018 71.64696954 -7.08561759 70.49115434 -5 68 C-4.11048724 65.33146173 -3.77933063 63.51458531 -3.6875 60.75 C-3.63142578 59.65945313 -3.63142578 59.65945313 -3.57421875 58.546875 C-4.45712786 53.26562051 -7.0131922 49.444776 -11.28515625 46.375 C-12.53446972 45.56795509 -13.79409389 44.77669273 -15.0625 44 C-16.05624634 43.36118896 -16.05624634 43.36118896 -17.07006836 42.70947266 C-20.0876649 40.77783226 -23.13909564 38.91728536 -26.21875 37.0859375 C-33.23352117 32.86551199 -37.37027198 28.66179058 -41.375 21.5625 C-42.99728305 14.91113948 -42.52882552 8.95489306 -39 3 C-27.32931847 -9.6496791 -14.18037907 -7.68485059 0 0 Z " fill="#fff" transform="translate(247,361)"/>
<path d="M0 0 C10.23 0 20.46 0 31 0 C31 1.32 31 2.64 31 4 C28.36 4.66 25.72 5.32 23 6 C22.20776519 9.16893923 21.87039347 11.31485811 21.85473633 14.48632812 C21.84835648 15.36824829 21.84197662 16.25016846 21.83540344 17.15881348 C21.83429062 18.10671753 21.8331778 19.05462158 21.83203125 20.03125 C21.82870285 21.01814819 21.82537445 22.00504639 21.82194519 23.02185059 C21.81688322 25.11319514 21.81453664 27.20454776 21.81469727 29.29589844 C21.81252714 32.46042663 21.79440903 35.62459672 21.77539062 38.7890625 C20.85241464 57.50574081 20.85241464 57.50574081 28 74 C32.78625883 77.19083922 37.31378084 77.37908128 43 77 C47.69535278 76.04802126 51.68618289 74.84163515 54.9375 71.1875 C60.15353111 63.12636101 60.15658996 54.17854272 60.16796875 44.8671875 C60.17129715 43.91232452 60.17462555 42.95746155 60.17805481 41.97366333 C60.18309564 39.96503173 60.18546402 37.95639183 60.18530273 35.94775391 C60.187498 32.87779046 60.20570786 29.80818166 60.22460938 26.73828125 C60.22754215 24.78125122 60.22952772 22.8242195 60.23046875 20.8671875 C60.23765427 19.95250702 60.24483978 19.03782654 60.25224304 18.09542847 C60.24268033 11.81202557 60.24268033 11.81202557 58 6 C56.07507643 4.97839563 56.07507643 4.97839563 53.875 4.6875 C52.59625 4.460625 51.3175 4.23375 50 4 C50 2.68 50 1.36 50 0 C57.92 0 65.84 0 74 0 C74 1.32 74 2.64 74 4 C72.865625 4.28875 71.73125 4.5775 70.5625 4.875 C69.386875 5.24625 68.21125 5.6175 67 6 C65.79694858 8.40610284 65.86288035 9.93903124 65.84228516 12.62646484 C65.82689194 14.0696962 65.82689194 14.0696962 65.81118774 15.54208374 C65.80388641 16.58780548 65.79658508 17.63352722 65.7890625 18.7109375 C65.76096462 20.92839243 65.73230001 23.14584023 65.703125 25.36328125 C65.66208265 28.85627825 65.6251966 32.34914648 65.59863281 35.84228516 C65.57075939 39.21545004 65.52485732 42.58801095 65.4765625 45.9609375 C65.47330963 46.98641693 65.47005676 48.01189636 65.46670532 49.06845093 C65.3176702 58.00774962 64.46488023 68.36989381 58.5546875 75.5390625 C51.99352332 81.70457858 43.8498301 83.76248997 35 84 C26.86130245 83.05227652 19.75924009 80.68397295 14.5390625 74.1796875 C8.98412909 65.99177987 8.69529912 57.52576669 8.62109375 47.9140625 C8.60409927 46.77593109 8.5871048 45.63779968 8.56959534 44.46517944 C8.51672486 40.85184172 8.47625922 37.23851445 8.4375 33.625 C8.3935703 29.9901175 8.34693623 26.3553233 8.29469299 22.72055054 C8.26272898 20.46364008 8.23584107 18.20665102 8.21446228 15.94961548 C8.20097244 14.93450897 8.1874826 13.91940247 8.17358398 12.87353516 C8.16407211 11.9783316 8.15456024 11.08312805 8.14476013 10.16079712 C8.13650603 7.95099018 8.13650603 7.95099018 7 6 C4.6859378 5.26924352 2.35171131 4.59861742 0 4 C0 2.68 0 1.36 0 0 Z " fill="#fff" transform="translate(47,356)"/>
<path d="M0 0 C1.57416559 8.02824451 1.57416559 8.02824451 -1 12 C-3.88536218 12.9233159 -6.41506782 13.51612743 -9.375 14 C-29.28565065 17.88370872 -45.56732528 28.10835691 -57.5625 44.6875 C-62.58801122 52.2078612 -67.24441871 60.04651458 -71.640625 67.94921875 C-72.08921875 68.62597656 -72.5378125 69.30273438 -73 70 C-73.66 70 -74.32 70 -75 70 C-78.32824209 60.45903935 -80.77972824 48.66213463 -76.4375 39.0625 C-74.8142546 35.92019265 -72.97138649 32.93696354 -71 30 C-70.01 30 -69.02 30 -68 30 C-67.34 30.66 -66.68 31.32 -66 32 C-63.0554321 27.00703705 -62.36504064 22.66442374 -62 17 C-61.34 17 -60.68 17 -60 17 C-59.61714844 16.11054687 -59.61714844 16.11054687 -59.2265625 15.203125 C-57.88183502 12.78775462 -56.50785633 11.48788294 -54.375 9.75 C-53.74335938 9.22921875 -53.11171875 8.7084375 -52.4609375 8.171875 C-51.73777344 7.59179688 -51.73777344 7.59179688 -51 7 C-47.1484375 8.78125 -47.1484375 8.78125 -45.8125 10.75 C-44.82935532 13.47255451 -44.39039936 16.13707134 -44 19 C-42.7315625 17.7315625 -42.7315625 17.7315625 -41.4375 16.4375 C-32.7295536 9.00858798 -20.91037244 5.40227809 -10.14453125 2.04296875 C-7.08501158 1.12753346 -7.08501158 1.12753346 -4.76171875 -0.19921875 C-3 -1 -3 -1 0 0 Z " fill="#fff" transform="translate(200,48)"/>
<path d="M0 0 C3.53718117 0.19119898 4.80386334 0.80902483 7.375 3.3125 C9 6 9 6 8.77734375 7.83203125 C7.81971628 10.50280134 6.5379292 12.87927008 5.1875 15.375 C-4.36824315 34.55556397 -4.69600816 55.74771557 2 76 C3.50732219 80.34229829 5.12305237 84.63417962 6.828125 88.90234375 C8 92 8 92 8 94 C1.78375714 93.68121831 -2.1638984 90.57010642 -7 87 C-7.64582031 86.56816406 -8.29164062 86.13632813 -8.95703125 85.69140625 C-14.67403235 81.49395664 -16.92078803 75.64006404 -19 69 C-19 68.01 -19 67.02 -19 66 C-17.68 66 -16.36 66 -15 66 C-15.76567866 64.41416752 -16.53777965 62.83143506 -17.3125 61.25 C-17.74175781 60.36828125 -18.17101562 59.4865625 -18.61328125 58.578125 C-19.91851299 55.99756755 -19.91851299 55.99756755 -21.60546875 53.859375 C-23.91464888 50.78046817 -24.13712979 48.09884469 -24.125 44.375 C-24.12757812 43.57835937 -24.13015625 42.78171875 -24.1328125 41.9609375 C-24 40 -24 40 -23 39 C-18.33521915 38.57592901 -15.81535994 39.30680475 -12 42 C-12.04511719 40.83855469 -12.09023437 39.67710937 -12.13671875 38.48046875 C-12.13197954 34.1687318 -11.19179036 30.37724227 -9.8125 26.3125 C-9.58981445 25.62768555 -9.36712891 24.94287109 -9.13769531 24.23730469 C-7.28914391 18.63979769 -5.20966714 13.14309402 -3.015625 7.671875 C-2.16962287 5.44623864 -1.57047416 3.30302531 -1 1 C-0.67 0.67 -0.34 0.34 0 0 Z " fill="#fff" transform="translate(134,151)"/>
<path d="M0 0 C10.23 0 20.46 0 31 0 C31 1.32 31 2.64 31 4 C30.15115234 4.16435547 30.15115234 4.16435547 29.28515625 4.33203125 C28.55167969 4.49058594 27.81820313 4.64914062 27.0625 4.8125 C26.33160156 4.96332031 25.60070312 5.11414063 24.84765625 5.26953125 C23.93306641 5.63111328 23.93306641 5.63111328 23 6 C21.90444141 9.28667576 21.8730607 11.70776616 21.87060547 15.16796875 C21.86745331 16.43938721 21.86430115 17.71080566 21.86105347 19.02075195 C21.86284336 20.40966832 21.86489434 21.79858437 21.8671875 23.1875 C21.86651387 24.61092139 21.86554335 26.03434267 21.86428833 27.45776367 C21.86281414 30.44027807 21.86495698 33.42276252 21.86962891 36.40527344 C21.87532603 40.22865687 21.87204554 44.0519701 21.86605644 47.87535095 C21.86244332 50.81441782 21.86359288 53.75346803 21.86618423 56.6925354 C21.86685142 58.10234587 21.86603234 59.51215785 21.86370468 60.92196655 C21.86116592 62.89198783 21.86572131 64.8620144 21.87060547 66.83203125 C21.87140106 67.95327393 21.87219666 69.0745166 21.87301636 70.22973633 C21.87797444 73.08801638 21.87797444 73.08801638 23 76 C24.87387216 76.80212628 24.87387216 76.80212628 27.0625 77.1875 C28.16271484 77.42533203 28.16271484 77.42533203 29.28515625 77.66796875 C29.85105469 77.77753906 30.41695313 77.88710938 31 78 C31 79.32 31 80.64 31 82 C20.77 82 10.54 82 0 82 C-0.33 80.68 -0.66 79.36 -1 78 C-0.43410156 77.87882812 0.13179688 77.75765625 0.71484375 77.6328125 C1.44832031 77.46523438 2.18179687 77.29765625 2.9375 77.125 C3.66839844 76.96257812 4.39929688 76.80015625 5.15234375 76.6328125 C7.20700294 76.17038477 7.20700294 76.17038477 8 74 C8.09678674 71.917166 8.12796694 69.83117483 8.12939453 67.74609375 C8.13254669 66.43133057 8.13569885 65.11656738 8.13894653 63.76196289 C8.1371567 62.32047492 8.13510573 60.87898726 8.1328125 59.4375 C8.13348584 57.96541325 8.13445611 56.4933266 8.13571167 55.02124023 C8.13718723 51.9343968 8.13503862 48.84758227 8.13037109 45.76074219 C8.12467388 41.79934894 8.12795364 37.83802345 8.13394356 33.87663269 C8.13755298 30.83637988 8.13640882 27.79614319 8.13381577 24.75588989 C8.13314755 23.29501335 8.13397124 21.83413535 8.13629532 20.3732605 C8.13882803 18.33347602 8.13428493 16.29368643 8.12939453 14.25390625 C8.12859894 13.09189697 8.12780334 11.9298877 8.12698364 10.73266602 C8.18660147 8.0355251 8.18660147 8.0355251 7 6 C5.11235097 5.31527335 5.11235097 5.31527335 2.9375 4.875 C2.20402344 4.70742188 1.47054688 4.53984375 0.71484375 4.3671875 C0.14894531 4.24601562 -0.41695313 4.12484375 -1 4 C-0.67 2.68 -0.34 1.36 0 0 Z " fill="#fff" transform="translate(282,356)"/>
<path d="M0 0 C2.65546267 2.65546267 2.96306917 3.51066654 3.25 7.3125 C2.8986521 12.49488146 1.2458647 14.72046328 -2.3125 18.375 C-5 20 -5 20 -8.1875 19.875 C-11 19 -11 19 -13 17 C-12.67028521 13.70285207 -12.3773161 12.3773161 -10 10 C-7.27130593 10.03287583 -4.7033382 10.56397771 -2 11 C-2.49756092 8.24358584 -2.49756092 8.24358584 -4 6 C-10.42845466 5.67646727 -14.54068829 7.54773837 -19.46875 11.52734375 C-21.11026241 12.941634 -21.11026241 12.941634 -22 15 C-22.721875 15.391875 -23.44375 15.78375 -24.1875 16.1875 C-30.59684595 20.31796739 -33.85343666 26.24919138 -37 33 C-38.68135464 36.07029977 -40.00691037 38.00625224 -42.625 40.375 C-46.79488377 45.12263875 -46.09988476 53.03545277 -46 59 C-45.67 59.66 -45.34 60.32 -45 61 C-45.99 61.99 -45.99 61.99 -47 63 C-49.30817513 60.69182487 -48.3118239 54.69263155 -48.31469727 51.48339844 C-48.0334427 34.42173108 -42.01023931 18.56678743 -30.2109375 6.0859375 C-21.2641635 -2.35501182 -11.2132532 -7.47550214 0 0 Z " fill="#fff" transform="translate(180,146)"/>
<path d="M0 0 C13.73618151 -0.54400719 24.75676089 -0.55514596 35.44140625 9.21875 C38.88583506 13.15524007 39.5053343 16.62997202 39.37890625 21.74609375 C38.7075091 25.73986854 37.01525997 27.31248568 34 30 C29.42353786 32.28823107 25.92846315 32.2777497 21 31 C18.15414711 28.95682356 17.1721502 27.88226978 16.5 24.4375 C17 22 17 22 18.6875 20.125 C21.57270838 18.72138511 22.98731243 19.07945658 26 20 C26.66 21.98 27.32 23.96 28 26 C29.32 26 30.64 26 32 26 C32 23.69 32 21.38 32 19 C31.34 19 30.68 19 30 19 C29.55011719 18.53980469 29.10023438 18.07960938 28.63671875 17.60546875 C26.77194167 15.776296 25.26672559 15.15739733 22.8125 14.3125 C21.73935547 13.93544922 21.73935547 13.93544922 20.64453125 13.55078125 C20.10183594 13.36902344 19.55914062 13.18726562 19 13 C19 12.34 19 11.68 19 11 C16.69 11 14.38 11 12 11 C12 10.34 12 9.68 12 9 C11.01 8.67 10.02 8.34 9 8 C8.5875 7.525625 8.175 7.05125 7.75 6.5625 C5.170055 4.25897767 2.30722434 3.81120597 -1 3 C-0.67 2.01 -0.34 1.02 0 0 Z " fill="#fff" transform="translate(195,61)"/>
<path d="M0 0 C2.65546267 2.65546267 2.96306917 3.51066654 3.25 7.3125 C2.8986521 12.49488146 1.2458647 14.72046328 -2.3125 18.375 C-5 20 -5 20 -8.1875 19.875 C-11 19 -11 19 -13 17 C-12.67028521 13.70285207 -12.3773161 12.3773161 -10 10 C-7.27130593 10.03287583 -4.7033382 10.56397771 -2 11 C-2.49756092 8.24358584 -2.49756092 8.24358584 -4 6 C-5.7953052 6.09064244 -7.58747875 6.2474879 -9.375 6.4375 C-12.28338616 6.74061676 -15.07425015 7 -18 7 C-18.99 7.66 -19.98 8.32 -21 9 C-21 5.48283697 -20.17554415 4.62878252 -18 2 C-18.54269531 2.30035156 -19.08539063 2.60070312 -19.64453125 2.91015625 C-20.35996094 3.29042969 -21.07539063 3.67070312 -21.8125 4.0625 C-22.52019531 4.44535156 -23.22789062 4.82820312 -23.95703125 5.22265625 C-26 6 -26 6 -29 5 C-20.15449846 -2.79246564 -10.72269836 -7.14846557 0 0 Z M-31 7 C-31 7.99 -31 8.98 -31 10 C-31.66 9.67 -32.32 9.34 -33 9 C-32.34 8.34 -31.68 7.68 -31 7 Z " fill="#fff" transform="translate(180,146)"/>
<path d="M0 0 C1.98 0 3.96 0 6 0 C6.27714844 0.78246094 6.55429688 1.56492187 6.83984375 2.37109375 C7.20207031 3.38300781 7.56429687 4.39492188 7.9375 5.4375 C8.29714844 6.44683594 8.65679687 7.45617187 9.02734375 8.49609375 C9.76877639 10.90313745 9.76877639 10.90313745 11 12 C10.43111163 8.0177814 9.10998585 5.39432507 7 2 C7 1.34 7 0.68 7 0 C8.98 0 10.96 0 13 0 C13.33 0.66 13.66 1.32 14 2 C14 1.34 14 0.68 14 0 C18.62 0 23.24 0 28 0 C26.71077199 2.57845602 25.41254281 5.13137152 24.0546875 7.671875 C23.52294922 8.66767578 23.52294922 8.66767578 22.98046875 9.68359375 C22.61566406 10.36550781 22.25085938 11.04742187 21.875 11.75 C21.50246094 12.44738281 21.12992188 13.14476562 20.74609375 13.86328125 C19.83120092 15.57577295 18.91566431 17.28792068 18 19 C17.34 19 16.68 19 16 19 C15.34 17.68 14.68 16.36 14 15 C13.54625 15.66 13.0925 16.32 12.625 17 C12.08875 17.66 11.5525 18.32 11 19 C10.34 19 9.68 19 9 19 C7.4933028 16.2118978 5.99580196 13.41896042 4.5 10.625 C4.07074219 9.8309375 3.64148438 9.036875 3.19921875 8.21875 C2.79316406 7.45820313 2.38710937 6.69765625 1.96875 5.9140625 C1.40317383 4.8614624 1.40317383 4.8614624 0.82617188 3.78759766 C0 2 0 2 0 0 Z M20 2 C16.69363652 5.94998119 16.69363652 5.94998119 16.25 10.875 C16.4975 11.57625 16.745 12.2775 17 13 C19.72957339 10.64264116 20.88893396 8.41866474 22 5 C22 4.01 22 3.02 22 2 C21.34 2 20.68 2 20 2 Z " fill="#fff" transform="translate(155,462)"/>
<path d="M0 0 C4 1 4 1 5.484375 2.99609375 C5.90203125 3.80175781 6.3196875 4.60742188 6.75 5.4375 C7.39195312 6.64212891 7.39195312 6.64212891 8.046875 7.87109375 C9 10 9 10 9 12 C9.66 12 10.32 12 11 12 C11.268125 11.113125 11.53625 10.22625 11.8125 9.3125 C12.93816707 6.17248134 14.01298669 3.67482562 16 1 C18.1875 0.1875 18.1875 0.1875 20 0 C19.81695312 0.53496094 19.63390625 1.06992187 19.4453125 1.62109375 C18.87746698 4.65458427 19.32659464 7.03124574 19.875 10.0625 C20.05804688 11.10535156 20.24109375 12.14820313 20.4296875 13.22265625 C20.95658092 16.06797454 20.95658092 16.06797454 22 19 C20.02 19 18.04 19 16 19 C15.67 16.03 15.34 13.06 15 10 C13.68 12.97 12.36 15.94 11 19 C6.60841671 17.5361389 6.12052567 15.02168662 4 11 C3.814375 12.9490625 3.814375 12.9490625 3.625 14.9375 C3.4140625 17.15234375 3.4140625 17.15234375 3 19 C0.50907189 20.24546405 -0.41080733 19.7767578 -3 19 C-3 18.34 -3 17.68 -3 17 C-2.34 17 -1.68 17 -1 17 C-0.67 11.39 -0.34 5.78 0 0 Z " fill="#fff" transform="translate(225,462)"/>
<path d="M0 0 C2.86009035 0.0841203 4.54648827 0.56818739 6.6328125 2.5546875 C11.84397638 8.62179134 11.84397638 8.62179134 12.375 13.3125 C11.91014246 17.88359915 10.46888711 19.13816813 7 22 C1.25 20.25 1.25 20.25 -1 18 C-1.25 15 -1.25 15 -1 12 C-0.34 11.34 0.32 10.68 1 10 C1.16681109 6.91652174 1.16681109 6.91652174 1 4 C0.34 3.67 -0.32 3.34 -1 3 C-0.67 2.01 -0.34 1.02 0 0 Z " fill="#fff" transform="translate(192,205)"/>
<path d="M0 0 C2.31 0 4.62 0 7 0 C6.67 2.31 6.34 4.62 6 7 C8.97 7.33 11.94 7.66 15 8 C14.67 5.36 14.34 2.72 14 0 C15.98 0 17.96 0 20 0 C20 6.27 20 12.54 20 19 C18.02 19 16.04 19 14 19 C14.33 16.36 14.66 13.72 15 11 C12.03 11 9.06 11 6 11 C6.33 13.64 6.66 16.28 7 19 C5.02 19 3.04 19 1 19 C1.01160156 17.87980469 1.02320313 16.75960938 1.03515625 15.60546875 C1.04453622 14.13281417 1.0536362 12.66015778 1.0625 11.1875 C1.07087891 10.44951172 1.07925781 9.71152344 1.08789062 8.95117188 C1.10259828 5.70077932 1.03531702 3.10595105 0 0 Z " fill="#fff" transform="translate(266,462)"/>
<path d="M0 0 C2.31 0 4.62 0 7 0 C6.67 2.31 6.34 4.62 6 7 C8.97 7.33 11.94 7.66 15 8 C14.67 5.36 14.34 2.72 14 0 C15.98 0 17.96 0 20 0 C20 6.27 20 12.54 20 19 C18.02 19 16.04 19 14 19 C14.33 16.36 14.66 13.72 15 11 C12.03 11 9.06 11 6 11 C6.33 13.64 6.66 16.28 7 19 C5.02 19 3.04 19 1 19 C1.01160156 17.87980469 1.02320312 16.75960938 1.03515625 15.60546875 C1.04453622 14.13281417 1.0536362 12.66015778 1.0625 11.1875 C1.07087891 10.44951172 1.07925781 9.71152344 1.08789062 8.95117188 C1.10259828 5.70077932 1.03531702 3.10595105 0 0 Z " fill="#fff" transform="translate(106,462)"/>
<path d="M0 0 C1.5 2.3125 1.5 2.3125 2 5 C1.125 7.8125 1.125 7.8125 0 10 C2.52788007 12.79872437 4.20411134 14.45773019 8 15 C8 15.66 8 16.32 8 17 C3.56356484 17.43494462 1.67136622 17.54001196 -1.875 14.6875 C-4 12 -4 12 -5 9 C-5.99 9.495 -5.99 9.495 -7 10 C-6.67 12.31 -6.34 14.62 -6 17 C-8.31 17 -10.62 17 -13 17 C-13 16.34 -13 15.68 -13 15 C-12.34 15 -11.68 15 -11 15 C-11.14063135 12.70800823 -11.28765943 10.41640814 -11.4375 8.125 C-11.51871094 6.84882813 -11.59992188 5.57265625 -11.68359375 4.2578125 C-11.79206027 1.11699848 -11.79206027 1.11699848 -13 -1 C-8.05081262 -1.98983748 -4.57220452 -2.33926743 0 0 Z M-8 1 C-8 2.98 -8 4.96 -8 7 C-6.35 6.67 -4.7 6.34 -3 6 C-2.67 5.01 -2.34 4.02 -2 3 C-2.33 2.34 -2.66 1.68 -3 1 C-4.65 1 -6.3 1 -8 1 Z " fill="#fff" transform="translate(213,464)"/>
<path d="M0 0 C3.07441095 2.42226318 3.0018345 4.01284152 3.5625 7.9375 C3.4088211 11.51220491 2.96658533 12.0400976 0.5 15 C-3.37276833 17.71002228 -6.38077084 17.58656878 -11 17 C-14.58552881 15.36312815 -15.79315055 14.31027417 -18 11 C-18.49054578 7.23914899 -18.31266471 5.50952767 -16.3125 2.25 C-11.10236597 -2.81931959 -6.53962783 -2.41928428 0 0 Z M-12.375 2.5625 C-14.32083942 5.00592927 -14.32083942 5.00592927 -14.0625 8.5625 C-13.28833299 12.06736246 -13.28833299 12.06736246 -10.8125 14.0625 C-7.97798599 15.24662078 -7.97798599 15.24662078 -4.8125 14.5 C-1.88375084 13.22951115 -1.88375084 13.22951115 -0.5 10.6875 C0.11628773 7.37495343 -0.34868686 5.90945648 -2 3 C-5.98338636 0.34440909 -8.28942481 -0.12537841 -12.375 2.5625 Z " fill="#fff" transform="translate(375,464)"/>
<path d="M0 0 C2.59801516 2.44955715 3.09274898 3.35186736 3.5625 6.875 C3.1875 10.0625 3.1875 10.0625 1.125 12.8125 C-2.26585008 15.40974687 -4.58016313 16.46848781 -8.8125 17.0625 C-12.0625 15.875 -12.0625 15.875 -14.8125 14.0625 C-15.43125 13.670625 -16.05 13.27875 -16.6875 12.875 C-18.61443749 9.77048961 -18.54204934 6.52785937 -17.8125 3.0625 C-15.6967743 0.30030256 -14.04870049 -1.37921591 -10.875 -2.8125 C-6.51170501 -3.07694212 -3.62537585 -2.49748114 0 0 Z M-12.6875 1.125 C-14.50203275 4.25002863 -14.30743962 6.53605518 -13.8125 10.0625 C-11.82229883 12.72134601 -11.82229883 12.72134601 -8.8125 14.0625 C-5.63507395 14.1583418 -5.63507395 14.1583418 -2.8125 13.0625 C-0.48500655 9.57125983 -0.30950684 8.17027749 -0.8125 4.0625 C-2.3125 1.5625 -2.3125 1.5625 -4.8125 0.0625 C-7.98485276 -0.39069325 -9.87737736 -0.46740283 -12.6875 1.125 Z " fill="#fff" transform="translate(315.8125,464.9375)"/>
<path d="M0 0 C2.89698584 3.14529891 3.1875 5.13447928 3.1875 9.375 C1.98711065 12.21802741 0.92650498 13.80021835 -1.5 15.6875 C-5.6990265 16.93585923 -9.6384798 17.36110621 -13.6640625 15.53515625 C-15.99610787 13.89388261 -17.57733958 12.2141336 -18.35546875 9.4375 C-18.63958917 5.38302488 -18.08544723 3.73134778 -15.5625 0.4375 C-10.2874044 -3.5188217 -5.7710253 -3.33437017 0 0 Z M-12.6875 1.4375 C-14.43659203 4.44982516 -14.11651551 6.97002627 -13.8125 10.375 C-12.15284619 13.51570589 -12.15284619 13.51570589 -9.5 14.1875 C-6.34818298 14.40739421 -4.59035062 13.84108783 -1.8125 12.375 C-0.39208179 9.53416359 -0.49797728 7.52022722 -0.8125 4.375 C-2.3125 1.875 -2.3125 1.875 -4.8125 0.375 C-7.98485276 -0.07819325 -9.87737736 -0.15490283 -12.6875 1.4375 Z " fill="#fff" transform="translate(412.8125,464.625)"/>
<path d="M0 0 C-1.51968265 3.86828312 -3.79802729 5.43842183 -7 8 C-8.78326772 9.90669197 -10.47900056 11.87208761 -12.171875 13.859375 C-13.37017726 15.26251526 -14.58849793 16.64885669 -15.828125 18.015625 C-19.79267781 22.39387028 -23.04741302 26.88399675 -26 32 C-27.32755268 28.01734195 -25.94435622 25.82018691 -24.3125 22.1875 C-23.79300781 20.98480469 -23.27351562 19.78210938 -22.73828125 18.54296875 C-18.17526254 9.24261377 -18.17526254 9.24261377 -13 7 C-12.34 6.01 -11.68 5.02 -11 4 C-9.16015625 2.83203125 -9.16015625 2.83203125 -7.0625 1.8125 C-6.37285156 1.46832031 -5.68320313 1.12414062 -4.97265625 0.76953125 C-3 0 -3 0 0 0 Z " fill="#fff" transform="translate(162,148)"/>
<path d="M0 0 C0.66 1.98 1.32 3.96 2 6 C3.32 6 4.64 6 6 6 C6.33 4.35 6.66 2.7 7 1 C7.66 1.33 8.32 1.66 9 2 C9.625 5.0625 9.625 5.0625 10 8 C6.91575609 10.95573374 4.09395066 11.68206893 -0.03515625 12.07421875 C-3.99717596 11.92455995 -6.32152819 9.67847181 -9 7 C-9.375 4.5625 -9.375 4.5625 -9 2 C-6.04897468 -1.27891703 -4.09533092 -1.25135112 0 0 Z " fill="#fff" transform="translate(221,81)"/>
<path d="M0 0 C1.60407328 -0.02708567 3.2082785 -0.04643483 4.8125 -0.0625 C5.70582031 -0.07410156 6.59914062 -0.08570313 7.51953125 -0.09765625 C10 0 10 0 13 1 C13 1.99 13 2.98 13 4 C10.69 3.67 8.38 3.34 6 3 C6 4.32 6 5.64 6 7 C8.31 7 10.62 7 13 7 C12.67 8.65 12.34 10.3 12 12 C9.03 11.505 9.03 11.505 6 11 C6 12.65 6 14.3 6 16 C8.31 16 10.62 16 13 16 C13 15.34 13 14.68 13 14 C13.99 14 14.98 14 16 14 C14.125 17.875 14.125 17.875 13 19 C10.81360547 19.07258946 8.62499611 19.08373783 6.4375 19.0625 C4.64119141 19.04896484 4.64119141 19.04896484 2.80859375 19.03515625 C1.88175781 19.02355469 0.95492187 19.01195312 0 19 C0.495 17.515 0.495 17.515 1 16 C1.09485782 13.8350098 1.12988077 11.66706177 1.125 9.5 C1.12757813 8.3553125 1.13015625 7.210625 1.1328125 6.03125 C1.13684408 2.95320141 1.13684408 2.95320141 0 0 Z " fill="#fff" transform="translate(128,462)"/>
<path d="M0 0 C2.26953125 0.03125 2.26953125 0.03125 5 1 C6.47855009 3.53635046 7.60225832 5.80543638 8.6875 8.5 C10.38722393 13.55333944 10.38722393 13.55333944 14 17 C14 17.66 14 18.32 14 19 C11.69 19 9.38 19 7 19 C6.67 16.69 6.34 14.38 6 12 C4.02 12 2.04 12 0 12 C-0.33 14.31 -0.66 16.62 -1 19 C-2.98 19 -4.96 19 -7 19 C-7 18.34 -7 17.68 -7 17 C-6.56171875 16.56558594 -6.1234375 16.13117188 -5.671875 15.68359375 C-3.65771058 13.65531136 -2.54971184 11.60458345 -1.25 9.0625 C-0.80140625 8.20785156 -0.3528125 7.35320312 0.109375 6.47265625 C1.08377402 3.76741687 1.00579304 2.64327318 0 0 Z M3 7 C2.67 7.99 2.34 8.98 2 10 C2.99 9.67 3.98 9.34 5 9 C4.34 8.34 3.68 7.68 3 7 Z " fill="#fff" transform="translate(185,462)"/>
<path d="M0 0 C2 2 2 2 2.0625 4.75 C0.5953202 9.2378441 -1.88684457 11.70838483 -6 14 C-9.3125 14 -9.3125 14 -12 13 C-12.66 12.34 -13.32 11.68 -14 11 C-13.67028521 7.70285207 -13.3773161 6.3773161 -11 4 C-8.27130593 4.03287583 -5.7033382 4.56397771 -3 5 C-3 3.68 -3 2.36 -3 1 C-2.01 0.67 -1.02 0.34 0 0 Z " fill="#fff" transform="translate(181,152)"/>
<path d="M0 0 C0 1.32 0 2.64 0 4 C-2.31 3.67 -4.62 3.34 -7 3 C-6.236875 3.7425 -5.47375 4.485 -4.6875 5.25 C-0.08280255 9.96178344 -0.08280255 9.96178344 1 12 C0.5625 14.625 0.5625 14.625 -1 17 C-3.8125 18.5 -3.8125 18.5 -7 19 C-9.875 17.625 -9.875 17.625 -12 16 C-11.67 14.68 -11.34 13.36 -11 12 C-10.4225 12.495 -9.845 12.99 -9.25 13.5 C-6.89599371 15.36980013 -6.89599371 15.36980013 -3 15 C-4.1652033 11.73743077 -5.08559051 10.94693388 -8.125 9.0625 C-11 7 -11 7 -11.6875 4.4375 C-11 2 -11 2 -8.875 0.125 C-5.44578278 -1.21686761 -3.52120592 -0.90077361 0 0 Z " fill="#fff" transform="translate(355,463)"/>
<path d="M0 0 C5.61 0 11.22 0 17 0 C16.34 1.65 15.68 3.3 15 5 C14.67 4.34 14.34 3.68 14 3 C12.68 3.33 11.36 3.66 10 4 C10.33 8.95 10.66 13.9 11 19 C9.02 19 7.04 19 5 19 C5.33 13.72 5.66 8.44 6 3 C3.36 3.66 0.72 4.32 -2 5 C-1.34 3.35 -0.68 1.7 0 0 Z " fill="#fff" transform="translate(248,462)"/>
<path d="M0 0 C3.96 0 7.92 0 12 0 C12.33 1.32 12.66 2.64 13 4 C10.36 3.67 7.72 3.34 5 3 C5 4.65 5 6.3 5 8 C8.465 7.505 8.465 7.505 12 7 C12 8.32 12 9.64 12 11 C9.69 10.67 7.38 10.34 5 10 C5 12.31 5 14.62 5 17 C5.66 17 6.32 17 7 17 C7 17.66 7 18.32 7 19 C2.25 20.125 2.25 20.125 0 19 C0 18.34 0 17.68 0 17 C0.66 17 1.32 17 2 17 C1.85899143 14.72886197 1.71203245 12.45809275 1.5625 10.1875 C1.48128906 8.92292969 1.40007812 7.65835937 1.31640625 6.35546875 C1.12815453 3.00818107 1.12815453 3.00818107 0 0 Z " fill="#fff" transform="translate(319,462)"/>
<path d="M0 0 C1.98 0 3.96 0 6 0 C5.67 5.28 5.34 10.56 5 16 C10.55810604 15.23394386 10.55810604 15.23394386 14 14 C12.25 18.875 12.25 18.875 10 20 C8.12137125 19.91255632 6.24544819 19.75824458 4.375 19.5625 C3.37210937 19.46066406 2.36921875 19.35882813 1.3359375 19.25390625 C0.56507813 19.17011719 -0.20578125 19.08632813 -1 19 C-1 18.34 -1 17.68 -1 17 C-0.34 17 0.32 17 1 17 C0.67 11.39 0.34 5.78 0 0 Z " fill="#fff" transform="translate(379,462)"/>
<path d="M0 0 C5.61 0 11.22 0 17 0 C16.34 1.65 15.68 3.3 15 5 C14.67 4.34 14.34 3.68 14 3 C12.68 3.33 11.36 3.66 10 4 C9.90961901 9.15171623 10.15318867 13.91913204 11 19 C9.02 19 7.04 19 5 19 C5.33 13.72 5.66 8.44 6 3 C3.36 3.66 0.72 4.32 -2 5 C-1.34 3.35 -0.68 1.7 0 0 Z " fill="#fff" transform="translate(88,462)"/>
<path d="M0 0 C-0.78375 0.474375 -1.5675 0.94875 -2.375 1.4375 C-6.44746746 4.14285073 -9.94288141 7.4653788 -13.54296875 10.7578125 C-17.18209458 14.07873178 -20.90657934 17.2949515 -24.7265625 20.40625 C-27.81065472 22.82077828 -27.81065472 22.82077828 -30 26 C-30.66 25.67 -31.32 25.34 -32 25 C-10.05943536 -3.35314512 -10.05943536 -3.35314512 0 0 Z " fill="#fff" transform="translate(174,70)"/>
<path d="M0 0 C1.875 1.8125 1.875 1.8125 3 4 C2.6875 6.25 2.6875 6.25 2 8 C1.154375 7.67 0.30875 7.34 -0.5625 7 C-4.20989216 5.93894046 -7.22274664 5.84890987 -11 6 C-10.8125 4.1875 -10.8125 4.1875 -10 2 C-6.50301132 -0.81701866 -4.24940272 -1.67739581 0 0 Z " fill="#fff" transform="translate(180,146)"/>
<path d="M0 0 C0.33 0 0.66 0 1 0 C0.98839844 1.13179687 0.97679687 2.26359375 0.96484375 3.4296875 C0.95546546 4.91145669 0.9463653 6.39322765 0.9375 7.875 C0.92912109 8.62136719 0.92074219 9.36773437 0.91210938 10.13671875 C0.79311916 14.19845578 0.79311916 14.19845578 2 18 C1.34 18.66 0.68 19.32 0 20 C-1.5220959 18.4779041 -1.12959521 17.11789918 -1.1328125 15 C-1.13410156 14.195625 -1.13539063 13.39125 -1.13671875 12.5625 C-1.13285156 11.716875 -1.12898437 10.87125 -1.125 10 C-1.12886719 9.154375 -1.13273438 8.30875 -1.13671875 7.4375 C-1.13542969 6.633125 -1.13414062 5.82875 -1.1328125 5 C-1.13168457 4.2575 -1.13055664 3.515 -1.12939453 2.75 C-1 1 -1 1 0 0 Z " fill="#fff" transform="translate(133,189)"/>
<path d="M0 0 C0 3.38878512 -0.64361198 4.39757217 -2.4375 7.1875 C-2.88996094 7.90292969 -3.34242188 8.61835938 -3.80859375 9.35546875 C-4.20175781 9.89816406 -4.59492188 10.44085938 -5 11 C-5.33 11 -5.66 11 -6 11 C-6.375 8.3125 -6.375 8.3125 -6 5 C-4.176017 2.93601924 -2.27236161 1.60958947 0 0 Z " fill="#fff" transform="translate(140,175)"/>
<path d="M0 0 C1.5625 1.25 1.5625 1.25 3 3 C2.6875 5.1875 2.6875 5.1875 2 7 C0.02 6.34 -1.96 5.68 -4 5 C-2.68 4.34 -1.36 3.68 0 3 C0 2.01 0 1.02 0 0 Z " fill="#fff" transform="translate(180,147)"/>
<path d="M0 0 C0 0.66 0 1.32 0 2 C-2.31 2.33 -4.62 2.66 -7 3 C-7 2.01 -7 1.02 -7 0 C-3.98968256 -0.93423645 -3.13349732 -1.04449911 0 0 Z " fill="#fff" transform="translate(180,148)"/>
<path d="" fill="#fff" transform="translate(0,0)"/>
<path d="" fill="#fff" transform="translate(0,0)"/>
<path d="" fill="#fff" transform="translate(0,0)"/>
<path d="" fill="#fff" transform="translate(0,0)"/>
<path d="" fill="#fff" transform="translate(0,0)"/>
<path d="" fill="#fff" transform="translate(0,0)"/>
</svg>
